<svg width="15" height="15" viewBox="0 0 15 15" fill="none" xmlns="http://www.w3.org/2000/svg">
<path d="M6.55127 12.2236C7.67188 12.2236 8.72656 11.9014 9.62012 11.3447L12.6377 14.3623C12.8794 14.604 13.209 14.7212 13.5459 14.7212C14.2563 14.7212 14.791 14.1646 14.791 13.4614C14.791 13.1318 14.6812 12.8169 14.4321 12.5679L11.4438 9.57227C12.0591 8.64941 12.4106 7.54346 12.4106 6.35693C12.4106 3.13428 9.77393 0.490234 6.55127 0.490234C3.32861 0.490234 0.68457 3.13428 0.68457 6.35693C0.68457 9.57959 3.32861 12.2236 6.55127 12.2236ZM6.55127 10.4365C4.30273 10.4365 2.46436 8.59814 2.46436 6.35693C2.46436 4.11572 4.30273 2.27734 6.55127 2.27734C8.79248 2.27734 10.6309 4.11572 10.6309 6.35693C10.6309 8.59814 8.79248 10.4365 6.55127 10.4365Z" fill="black" fill-opacity="0.3"/>
</svg>
