<svg width="15" height="15" viewBox="0 0 15 15" fill="none" xmlns="http://www.w3.org/2000/svg">
<path d="M7.5 14.0371C11.3145 14.0371 14.4727 10.8721 14.4727 7.06445C14.4727 3.25 11.3076 0.0917969 7.49316 0.0917969C3.68555 0.0917969 0.527344 3.25 0.527344 7.06445C0.527344 10.8721 3.69238 14.0371 7.5 14.0371ZM7.5 12.875C4.27344 12.875 1.69629 10.291 1.69629 7.06445C1.69629 3.83789 4.2666 1.25391 7.49316 1.25391C10.7197 1.25391 13.3037 3.83789 13.3105 7.06445C13.3174 10.291 10.7266 12.875 7.5 12.875ZM3.9248 7.80273H7.49316C7.75977 7.80273 7.97168 7.59766 7.97168 7.32422V2.7168C7.97168 2.4502 7.75977 2.24512 7.49316 2.24512C7.22656 2.24512 7.02148 2.4502 7.02148 2.7168V6.85254H3.9248C3.65137 6.85254 3.44629 7.05762 3.44629 7.32422C3.44629 7.59766 3.65137 7.80273 3.9248 7.80273Z" fill="black"/>
</svg>
